<svg width="73" height="73" viewBox="0 0 73 73" fill="none" xmlns="http://www.w3.org/2000/svg">
<path d="M42.5834 7.60416V21.2917C42.5834 27.0282 42.5834 29.8935 44.3658 31.6759C46.1482 33.4583 49.0134 33.4583 54.75 33.4583M65.3959 45.625H45.625M45.625 45.625H30.4167M45.625 45.625V65.3958M7.60419 30.4167H15.2084C20.9449 30.4167 23.8102 30.4167 25.5926 28.6342C27.375 26.8518 27.375 23.9866 27.375 18.25M7.60419 45.625H18.25" stroke="#F24822" stroke-width="1.5" stroke-linecap="round" stroke-linejoin="round"/>
<path d="M7.60419 36.5C7.60419 22.8794 7.60419 16.0661 11.8351 11.8351C16.0661 7.60416 22.8764 7.60416 36.5 7.60416C50.1206 7.60416 56.9339 7.60416 61.1649 11.8351C65.3959 16.0661 65.3959 22.8764 65.3959 36.5C65.3959 50.1206 65.3959 56.9339 61.1649 61.1649C56.9339 65.3958 50.1236 65.3958 36.5 65.3958C22.8794 65.3958 16.0661 65.3958 11.8351 61.1649C7.60419 56.9339 7.60419 50.1236 7.60419 36.5Z" stroke="#F24822" stroke-width="1.5" stroke-linecap="round" stroke-linejoin="round"/>
</svg>
