<svg width="60" height="60" viewBox="0 0 60 60" fill="none" xmlns="http://www.w3.org/2000/svg">
<path d="M36.765 10.7825H23.235C21.5994 10.7818 19.9797 11.1035 18.4684 11.729C16.9572 12.3545 15.584 13.2717 14.4274 14.4281C13.2707 15.5846 12.3533 16.9576 11.7274 18.4687C11.1016 19.9798 10.7796 21.5994 10.78 23.235V36.765C10.7793 38.4008 11.101 40.0207 11.7267 41.5321C12.3524 43.0435 13.2698 44.4168 14.4265 45.5735C15.5832 46.7302 16.9565 47.6476 18.4679 48.2733C19.9793 48.8989 21.5992 49.2207 23.235 49.22H36.765C38.4008 49.2207 40.0207 48.8989 41.5321 48.2733C43.0435 47.6476 44.4168 46.7302 45.5735 45.5735C46.7301 44.4168 47.6475 43.0435 48.2732 41.5321C48.8989 40.0207 49.2206 38.4008 49.22 36.765V23.235C49.2206 21.5992 48.8989 19.9793 48.2732 18.4679C47.6475 16.9565 46.7301 15.5832 45.5735 14.4265C44.4168 13.2698 43.0435 12.3524 41.5321 11.7267C40.0207 11.1011 38.4008 10.7793 36.765 10.78V10.7825Z" stroke="#F24822" stroke-width="1.5"/>
<path d="M49.015 38.97H53.0625C53.7421 38.97 54.3939 38.7 54.8745 38.2195C55.355 37.7389 55.625 37.0871 55.625 36.4075V23.595C55.625 22.9154 55.355 22.2636 54.8745 21.783C54.3939 21.3025 53.7421 21.0325 53.0625 21.0325H49.0125M10.9875 38.97H6.9375C6.60099 38.97 6.26777 38.9037 5.95687 38.7749C5.64598 38.6462 5.36349 38.4574 5.12554 38.2195C4.88759 37.9815 4.69884 37.699 4.57006 37.3881C4.44128 37.0772 4.375 36.744 4.375 36.4075V23.595C4.375 22.9154 4.64498 22.2636 5.12554 21.783C5.6061 21.3025 6.25788 21.0325 6.9375 21.0325H10.9875" stroke="#F24822" stroke-width="1.5"/>
<path d="M6.91248 21.0325V10.7825M53.0625 21.0325L53.0375 10.7825M24.875 38.0925C26.2377 39.4451 28.0799 40.2042 30 40.2042C31.92 40.2042 33.7622 39.4451 35.125 38.0925M19.7 27.4375L22.2575 24.875L24.82 27.4375M35.075 27.4375L37.6375 24.875L40.1975 27.4375" stroke="#F24822" stroke-width="1.5" stroke-linecap="round" stroke-linejoin="round"/>
</svg>
