<svg width="47" height="47" viewBox="0 0 47 47" fill="none" xmlns="http://www.w3.org/2000/svg">
<path d="M25.9847 7.18473C26.5723 6.59732 27.3691 6.26733 28.2 6.26733C29.0308 6.26733 29.8277 6.59732 30.4153 7.18473L44.5153 21.2847C45.1027 21.8723 45.4326 22.6691 45.4326 23.5C45.4326 24.3308 45.1027 25.1277 44.5153 25.7153L30.4153 39.8153C29.8243 40.386 29.0328 40.7018 28.2113 40.6947C27.3897 40.6876 26.6038 40.358 26.0229 39.7771C25.4419 39.1961 25.1124 38.4103 25.1053 37.5887C25.0981 36.7672 25.414 35.9757 25.9847 35.3847L34.4667 26.6333H4.69998C3.86897 26.6333 3.072 26.3032 2.48438 25.7156C1.89677 25.128 1.56665 24.331 1.56665 23.5C1.56665 22.669 1.89677 21.872 2.48438 21.2844C3.072 20.6968 3.86897 20.3667 4.69998 20.3667H34.4667L25.9847 11.6153C25.3973 11.0277 25.0673 10.2308 25.0673 9.4C25.0673 8.56915 25.3973 7.77232 25.9847 7.18473Z" fill="white"/>
</svg>
