<svg width="76" height="76" viewBox="0 0 76 76" fill="none" xmlns="http://www.w3.org/2000/svg">
<path fill-rule="evenodd" clip-rule="evenodd" d="M40.375 8.93634C40.375 7.63801 39.2983 6.56134 38 6.56134C36.7016 6.56134 35.625 7.63801 35.625 8.93634V12.8947H25.555C23.9083 12.8947 22.61 12.8947 21.5016 13.1797C18.4933 13.9713 16.15 16.3147 15.3583 19.323C15.0733 20.4313 15.0733 21.7297 15.0733 23.3763V24.1047C15.0733 27.6513 15.0733 29.8997 15.58 31.7997C16.2631 34.3513 17.6061 36.678 19.4739 38.5458C21.3417 40.4136 23.6684 41.7566 26.22 42.4397C28.12 42.9463 30.4 42.9463 33.915 42.9463H42.1166C45.6633 42.9463 47.9116 42.9463 49.8116 42.4397C52.3632 41.7566 54.69 40.4136 56.5577 38.5458C58.4255 36.678 59.7685 34.3513 60.4516 31.7997C60.9583 29.8997 60.9583 27.6197 60.9583 24.1047V23.3763C60.9583 21.7297 60.9583 20.4313 60.6733 19.323C60.2856 17.8465 59.5124 16.4995 58.4329 15.42C57.3535 14.3406 56.0065 13.5674 54.53 13.1797C53.4216 12.8947 52.1233 12.8947 50.4766 12.8947H40.4066V8.93634H40.375ZM18.2083 72.2697C18.2083 61.3447 27.075 52.478 38 52.478C48.925 52.478 57.7916 61.3447 57.7916 72.2697C57.7916 73.568 58.8683 74.6447 60.1666 74.6447C61.465 74.6447 62.5416 73.568 62.5416 72.2697C62.5416 65.7608 59.956 59.5186 55.3536 54.9161C50.7511 50.3136 44.5088 47.728 38 47.728C31.4911 47.728 25.2489 50.3136 20.6464 54.9161C16.0439 59.5186 13.4583 65.7608 13.4583 72.2697C13.4583 73.568 14.535 74.6447 15.8333 74.6447C17.1316 74.6447 18.2083 73.568 18.2083 72.2697ZM26.9166 26.353C26.9166 24.6113 28.3416 23.1863 30.0833 23.1863H30.115C31.8566 23.1863 33.2816 24.6113 33.2816 26.353C33.2816 28.0947 31.8566 29.5197 30.115 29.5197H30.0833C28.3416 29.5197 26.9166 28.0947 26.9166 26.353ZM42.7183 26.353C42.7183 24.6113 44.1433 23.1863 45.885 23.1863H45.9166C47.6583 23.1863 49.0833 24.6113 49.0833 26.353C49.0833 28.0947 47.6583 29.5197 45.9166 29.5197H45.885C44.1433 29.5197 42.7183 28.0947 42.7183 26.353ZM22.7366 17.7713C23.1483 17.6447 23.75 17.6447 25.8716 17.6447H50.16C52.2816 17.6447 52.8833 17.6447 53.295 17.7713C54.6566 18.1197 55.7333 19.1963 56.0816 20.558C56.2083 20.9697 56.2083 21.5713 56.2083 23.693C56.2083 27.778 56.2083 29.3613 55.86 30.5647C54.91 34.1113 52.1233 36.898 48.5766 37.848C47.3416 38.1963 45.7583 38.1963 41.705 38.1963H34.3266C30.2416 38.1963 28.6583 38.1963 27.455 37.848C23.9083 36.898 21.1216 34.1113 20.1716 30.5647C19.855 29.3297 19.8233 27.7463 19.8233 23.693C19.8233 21.5713 19.8233 20.9697 19.95 20.558C20.2983 19.1963 21.375 18.1197 22.7366 17.7713Z" fill="#F8A000"/>
</svg>
