<svg width="69" height="69" viewBox="0 0 69 69" fill="none" xmlns="http://www.w3.org/2000/svg">
<path d="M13.4838 24.2219H55.5306V63.9256H13.4838V24.2219Z" fill="#ADC4D9"/>
<path d="M48.5157 24.2219H20.4844C18.6264 24.2257 16.8458 24.9664 15.5333 26.2816C14.2209 27.5967 13.4838 29.3789 13.4838 31.2369V34.7444C13.4819 33.8238 13.6616 32.9119 14.0125 32.0609C14.3635 31.2099 14.8789 30.4365 15.5291 29.7849C16.1794 29.1333 16.9518 28.6163 17.8021 28.2636C18.6523 27.9109 19.5639 27.7294 20.4844 27.7294H48.5157C49.4362 27.7294 50.3477 27.9109 51.198 28.2636C52.0483 28.6163 52.8207 29.1333 53.4709 29.7849C54.1212 30.4365 54.6366 31.2099 54.9875 32.0609C55.3385 32.9119 55.5182 33.8238 55.5163 34.7444V31.2369C55.5163 29.3789 54.7792 27.5967 53.4667 26.2816C52.1543 24.9664 50.3737 24.2257 48.5157 24.2219Z" fill="#C0DCEB"/>
<path d="M55.5162 47.0062H39.1719C37.934 47.0024 36.7479 46.509 35.8725 45.6337C34.9972 44.7584 34.5038 43.5723 34.5 42.3344V24.2219H48.5156C50.3736 24.2257 52.1542 24.9664 53.4667 26.2816C54.7791 27.5967 55.5163 29.3789 55.5162 31.2369V47.0062Z" fill="#8CA4B8"/>
<path d="M55.2144 29.1525C54.7697 27.7236 53.8798 26.4744 52.6746 25.5873C51.4694 24.7002 50.0121 24.2217 48.5156 24.2219H34.5V27.7294H48.5156C49.4362 27.7294 50.3477 27.9109 51.198 28.2636C52.0483 28.6163 52.8206 29.1333 53.4709 29.7849C54.1212 30.4365 54.6365 31.2099 54.9875 32.0609C55.3385 32.9119 55.5181 33.8238 55.5162 34.7444V31.2369C55.5185 30.531 55.4168 29.8287 55.2144 29.1525Z" fill="#ADC4D9"/>
<path d="M13.4838 24.2219H55.5306V63.9256H13.4838V24.2219Z" stroke="#45413C" stroke-width="0.5" stroke-linecap="round" stroke-linejoin="round"/>
<path opacity="0.15" d="M12.2188 65.4062C12.2188 65.9781 14.5662 66.5266 18.7448 66.931C22.9233 67.3353 28.5906 67.5625 34.5 67.5625C40.4094 67.5625 46.0767 67.3353 50.2552 66.931C54.4338 66.5266 56.7813 65.9781 56.7812 65.4062C56.7813 64.8344 54.4338 64.2859 50.2552 63.8815C46.0767 63.4772 40.4094 63.25 34.5 63.25C28.5906 63.25 22.9233 63.4772 18.7448 63.8815C14.5662 64.2859 12.2188 64.8344 12.2188 65.4062Z" fill="#45413C"/>
<path d="M17.5662 35.9088C17.5662 36.6752 17.7172 37.4341 18.0105 38.1422C18.3038 38.8503 18.7337 39.4937 19.2756 40.0356C19.8176 40.5776 20.4609 41.0075 21.169 41.3008C21.8771 41.5941 22.636 41.745 23.4025 41.745C24.1689 41.745 24.9278 41.5941 25.6359 41.3008C26.344 41.0075 26.9874 40.5776 27.5293 40.0356C28.0713 39.4937 28.5012 38.8503 28.7945 38.1422C29.0878 37.4341 29.2387 36.6752 29.2387 35.9088C29.2387 35.1423 29.0878 34.3834 28.7945 33.6753C28.5012 32.9672 28.0713 32.3239 27.5293 31.7819C26.9874 31.24 26.344 30.8101 25.6359 30.5168C24.9278 30.2235 24.1689 30.0725 23.4025 30.0725C22.636 30.0725 21.8771 30.2235 21.169 30.5168C20.4609 30.8101 19.8176 31.24 19.2756 31.7819C18.7337 32.3239 18.3038 32.9672 18.0105 33.6753C17.7172 34.3834 17.5662 35.1423 17.5662 35.9088Z" fill="white" stroke="#45413C" stroke-width="0.5" stroke-linecap="round" stroke-linejoin="round"/>
<path d="M20.4844 35.9088C20.4844 36.292 20.5599 36.6714 20.7065 37.0255C20.8532 37.3795 21.0681 37.7012 21.3391 37.9722C21.61 38.2432 21.9317 38.4581 22.2858 38.6048C22.6398 38.7514 23.0193 38.8269 23.4025 38.8269C23.7857 38.8269 24.1652 38.7514 24.5192 38.6048C24.8733 38.4581 25.195 38.2432 25.4659 37.9722C25.7369 37.7012 25.9518 37.3795 26.0985 37.0255C26.2451 36.6714 26.3206 36.292 26.3206 35.9088C26.3206 35.5255 26.2451 35.1461 26.0985 34.792C25.9518 34.438 25.7369 34.1163 25.4659 33.8453C25.195 33.5744 24.8733 33.3594 24.5192 33.2128C24.1652 33.0661 23.7857 32.9906 23.4025 32.9906C23.0193 32.9906 22.6398 33.0661 22.2858 33.2128C21.9317 33.3594 21.61 33.5744 21.3391 33.8453C21.0681 34.1163 20.8532 34.438 20.7065 34.792C20.5599 35.1461 20.4844 35.5255 20.4844 35.9088Z" fill="#00DBA8" stroke="#45413C" stroke-width="0.5" stroke-linecap="round" stroke-linejoin="round"/>
<path d="M39.7612 35.9088C39.7612 37.4566 40.3761 38.9411 41.4706 40.0356C42.5651 41.1301 44.0496 41.745 45.5975 41.745C47.1453 41.745 48.6298 41.1301 49.7243 40.0356C50.8188 38.9411 51.4337 37.4566 51.4337 35.9088C51.4337 35.1423 51.2828 34.3834 50.9895 33.6753C50.6962 32.9672 50.2663 32.3239 49.7243 31.7819C49.1824 31.24 48.539 30.8101 47.8309 30.5168C47.1228 30.2235 46.3639 30.0725 45.5975 30.0725C44.8311 30.0725 44.0721 30.2235 43.364 30.5168C42.656 30.8101 42.0126 31.24 41.4706 31.7819C40.9287 32.3239 40.4988 32.9672 40.2055 33.6753C39.9122 34.3834 39.7612 35.1423 39.7612 35.9088Z" fill="white" stroke="#45413C" stroke-width="0.5" stroke-linecap="round" stroke-linejoin="round"/>
<path d="M43.2687 35.9088C43.2687 36.5264 43.5141 37.1187 43.9508 37.5554C44.3875 37.9922 44.9799 38.2375 45.5975 38.2375C46.2151 38.2375 46.8074 37.9922 47.2442 37.5554C47.6809 37.1187 47.9262 36.5264 47.9262 35.9088C47.9262 35.2911 47.6809 34.6988 47.2442 34.2621C46.8074 33.8254 46.2151 33.58 45.5975 33.58C44.9799 33.58 44.3875 33.8254 43.9508 34.2621C43.5141 34.6988 43.2687 35.2911 43.2687 35.9088Z" fill="#00B8F0" stroke="#45413C" stroke-width="0.5" stroke-linecap="round" stroke-linejoin="round"/>
<path d="M52.6412 42.78C52.4506 42.78 52.2678 42.8557 52.133 42.9905C51.9982 43.1253 51.9225 43.3081 51.9225 43.4987C51.9225 43.6894 51.9982 43.8722 52.133 44.007C52.2678 44.1418 52.4506 44.2175 52.6412 44.2175C52.8319 44.2175 53.0147 44.1418 53.1495 44.007C53.2843 43.8722 53.36 43.6894 53.36 43.4987C53.36 43.3081 53.2843 43.1253 53.1495 42.9905C53.0147 42.8557 52.8319 42.78 52.6412 42.78ZM37.375 42.78C37.2328 42.78 37.0939 42.8221 36.9757 42.9011C36.8575 42.9801 36.7654 43.0923 36.711 43.2237C36.6566 43.355 36.6423 43.4995 36.6701 43.639C36.6978 43.7784 36.7662 43.9065 36.8668 44.007C36.9673 44.1075 37.0954 44.1759 37.2348 44.2037C37.3742 44.2314 37.5187 44.2172 37.6501 44.1628C37.7814 44.1084 37.8936 44.0163 37.9726 43.8981C38.0516 43.7799 38.0938 43.6409 38.0938 43.4987C38.0938 43.3081 38.018 43.1253 37.8832 42.9905C37.7484 42.8557 37.5656 42.78 37.375 42.78ZM37.375 26.3781C37.1844 26.3781 37.0016 26.4538 36.8668 26.5886C36.732 26.7234 36.6563 26.9062 36.6563 27.0969C36.6563 27.2875 36.732 27.4703 36.8668 27.6051C37.0016 27.7399 37.1844 27.8156 37.375 27.8156C37.5656 27.8156 37.7484 27.7399 37.8832 27.6051C38.018 27.4703 38.0938 27.2875 38.0938 27.0969C38.0938 26.9062 38.018 26.7234 37.8832 26.5886C37.7484 26.4538 37.5656 26.3781 37.375 26.3781Z" fill="#45413C"/>
<path d="M34.5 20.125V16.6175L40.9256 14.8638L33.3356 7.86313L44.4331 10.7813L46.2875 7.07251" stroke="#45413C" stroke-width="0.5" stroke-linecap="round" stroke-linejoin="round"/>
<path d="M44.4331 4.35562C44.4331 5.12956 44.7406 5.8718 45.2878 6.41905C45.8351 6.96631 46.5773 7.27375 47.3512 7.27375C48.1252 7.27375 48.8674 6.96631 49.4147 6.41905C49.9619 5.8718 50.2694 5.12956 50.2694 4.35562C50.2694 3.58169 49.9619 2.83945 49.4147 2.2922C48.8674 1.74494 48.1252 1.4375 47.3512 1.4375C46.5773 1.4375 45.8351 1.74494 45.2878 2.2922C44.7406 2.83945 44.4331 3.58169 44.4331 4.35562Z" fill="#FF6242" stroke="#45413C" stroke-width="0.5" stroke-linecap="round" stroke-linejoin="round"/>
<path d="M45.5975 31.8119V33.5656M49.68 35.9087H47.9263M45.5975 39.9912V38.2375M41.5006 35.9087H43.2544M55.5162 47.0062H39.1719C37.934 47.0024 36.7479 46.509 35.8725 45.6337C34.9972 44.7584 34.5038 43.5723 34.5 42.3344V24.2219H48.5156C50.3736 24.2257 52.1542 24.9664 53.4667 26.2816C54.7791 27.5967 55.5163 29.3789 55.5162 31.2369V47.0062Z" stroke="#45413C" stroke-width="0.5" stroke-linecap="round" stroke-linejoin="round"/>
<path d="M42.6794 24.2219H26.3206C26.3206 23.6839 26.4266 23.1511 26.6325 22.6541C26.8384 22.157 27.1401 21.7054 27.5206 21.3249C27.901 20.9445 28.3526 20.6427 28.8497 20.4369C29.3467 20.231 29.8795 20.125 30.4175 20.125H38.5825C39.1205 20.125 39.6532 20.231 40.1503 20.4369C40.6474 20.6427 41.099 20.9445 41.4794 21.3249C41.8599 21.7054 42.1616 22.157 42.3675 22.6541C42.5734 23.1511 42.6794 23.6839 42.6794 24.2219Z" fill="#ADC4D9" stroke="#45413C" stroke-width="0.5" stroke-linecap="round" stroke-linejoin="round"/>
<path d="M55.5162 34.7444H56.6806C57.6109 34.7444 58.503 35.1139 59.1608 35.7717C59.8186 36.4295 60.1881 37.3216 60.1881 38.2519V49.9244C60.1881 50.8546 59.8186 51.7468 59.1608 52.4046C58.503 53.0623 57.6109 53.4319 56.6806 53.4319H55.5162V34.7444ZM13.4694 53.4175H12.305C11.3772 53.4175 10.4872 53.05 9.82988 52.3953C9.1725 51.7406 8.80129 50.8521 8.79749 49.9244V38.2519C8.79749 37.7913 8.88821 37.3352 9.06448 36.9096C9.24075 36.4841 9.49911 36.0974 9.82481 35.7717C10.1505 35.446 10.5372 35.1876 10.9627 35.0114C11.3883 34.8351 11.8444 34.7444 12.305 34.7444H13.4694V53.4319V53.4175Z" fill="#FFE500" stroke="#45413C" stroke-width="0.5" stroke-linecap="round" stroke-linejoin="round"/>
<path d="M20.125 53.1875H48.875V65.4062H20.125V53.1875Z" fill="#C0DCEB"/>
<path d="M46.7188 53.1875H22.2812C21.7094 53.1875 21.1609 53.4147 20.7566 53.819C20.3522 54.2234 20.125 54.7719 20.125 55.3438V58.2188C20.125 57.6469 20.3522 57.0984 20.7566 56.694C21.1609 56.2897 21.7094 56.0625 22.2812 56.0625H46.7188C47.2906 56.0625 47.8391 56.2897 48.2435 56.694C48.6478 57.0984 48.875 57.6469 48.875 58.2188V55.3438C48.875 54.7719 48.6478 54.2234 48.2435 53.819C47.8391 53.4147 47.2906 53.1875 46.7188 53.1875Z" fill="#DAEDF7"/>
<path d="M20.125 53.1875H48.875V65.4062H20.125V53.1875Z" stroke="#45413C" stroke-width="0.5" stroke-linecap="round" stroke-linejoin="round"/>
<path d="M23 55.3438C22.8578 55.3438 22.7189 55.3859 22.6007 55.4649C22.4825 55.5439 22.3904 55.6561 22.336 55.7874C22.2816 55.9188 22.2673 56.0633 22.2951 56.2027C22.3228 56.3421 22.3912 56.4702 22.4918 56.5707C22.5923 56.6713 22.7204 56.7397 22.8598 56.7674C22.9992 56.7952 23.1437 56.7809 23.2751 56.7265C23.4064 56.6721 23.5186 56.58 23.5976 56.4618C23.6766 56.3436 23.7188 56.2047 23.7188 56.0625C23.7188 55.8719 23.643 55.6891 23.5082 55.5543C23.3734 55.4195 23.1906 55.3438 23 55.3438ZM46 55.3438C45.8578 55.3438 45.7189 55.3859 45.6007 55.4649C45.4825 55.5439 45.3904 55.6561 45.336 55.7874C45.2816 55.9188 45.2673 56.0633 45.2951 56.2027C45.3228 56.3421 45.3912 56.4702 45.4918 56.5707C45.5923 56.6713 45.7204 56.7397 45.8598 56.7674C45.9992 56.7952 46.1437 56.7809 46.2751 56.7265C46.4064 56.6721 46.5186 56.58 46.5976 56.4618C46.6766 56.3436 46.7188 56.2047 46.7188 56.0625C46.7188 55.8719 46.643 55.6891 46.5082 55.5543C46.3734 55.4195 46.1906 55.3438 46 55.3438Z" fill="#45413C"/>
</svg>
